<svg xmlns="http://www.w3.org/2000/svg" viewBox="0 0 14 14">
  <symbol id="icon-search" viewBox="0 0 14 14">
    <path d="M5.6.1A5.4 5.4 0 0110 8.8l3.6 3.6a.9.9 0 01-1.1 1.3h-.1L8.8 10a5.4 5.4 0 01-7-.6A5.4 5.4 0 015.5.1zm0 1.8a3.7 3.7 0 100 7.4 3.7 3.7 0 000-7.4z"/>
  </symbol>
  <symbol id="icon-add" viewBox="0 0 14 14">
    <path d="M5.9.7H6a1 1 0 011 .8V5h3.3a1 1 0 011 .9V6a1 1 0 01-.8 1H7v3.3a1 1 0 01-.9 1H6a1 1 0 01-1-.8V7H1.7a1 1 0 01-1-.9V6a1 1 0 01.8-1H5V1.7a1 1 0 01.9-1H6h-.1z"/>
  </symbol>
  <symbol id="icon-chat" viewBox="0 0 15 13">
    <path d="M7 12.2c3.9 0 7-2.7 7-6.1C14 2.7 10.9 0 7 0S0 2.7 0 6c0 1.6.7 3 1.7 4.1 0 .9-.3 1.9-.7 2.6 0 .1.1.3.3.3 2-.3 3.1-.8 3.6-1a8 8 0 002.1.2z"/>
  </symbol>
  <symbol id="icon-notify" viewBox="0 0 12 14">
    <path d="M4 11.7h4a2 2 0 01-4 0zM6 .3a5 5 0 015 5V8l1 2.1a.6.6 0 01-.6.9H.6a.6.6 0 01-.5-.9L1 8V5.2A5 5 0 016 .3z"/>
  </symbol>
  <symbol id="icon-dropdown" viewBox="0 0 8 5">
    <path d="M7 .2a.6.6 0 011 .4.6.6 0 01-.2.4L4.4 4.3a.6.6 0 01-.8 0L.2 1a.6.6 0 010-.8.6.6 0 01.8 0l3 2.7L7 .2z"/>
  </symbol>
</svg>